<svg width="60" height="38" viewBox="0 0 60 38" fill="none" xmlns="http://www.w3.org/2000/svg">
<g clip-path="url(#clip0_70_87)">
<path d="M3.01171 1.12089C2.26 1.08257 1.64497 2.24656 1.20566 3.07046C0.917666 3.60696 0.395375 4.74222 0.131789 7.20913C0.0292836 8.15757 0.0195212 8.83777 0.00487751 10.155C-0.0536972 14.9164 0.429544 17.4839 0.605268 18.7198C0.97136 21.5555 1.38626 24.7553 1.79629 27.2414C2.20143 29.6891 2.50406 31.4711 2.95314 31.4759C3.18255 31.4759 3.39245 31.0256 3.85128 29.4353C4.24178 28.0845 4.67621 26.3888 5.05694 24.3913C5.83794 25.1433 6.98991 26.1301 8.54702 27.0498C11.6759 28.894 14.4533 29.2916 15.0146 29.3634C16.767 29.5933 20.7989 30.125 22.1461 28.0509C22.6342 27.3037 22.5903 26.4941 22.5659 26.1013C22.4243 23.5434 19.8324 21.8286 17.9922 20.6071C16.601 19.6874 14.1995 18.3653 10.7729 17.7139C11.6368 16.2864 12.4178 15.1751 12.945 14.4566C14.5558 12.2627 15.8933 10.864 18.2314 7.7073C18.7927 6.95046 19.149 6.5433 19.4663 5.85352C19.5542 5.66192 20.9112 2.55792 19.4077 0.895751C19.3687 0.85264 19.0612 0.522122 18.6316 0.316147C16.4058 -0.742469 12.286 2.27051 10.3531 4.13866C6.15034 8.20547 5.26684 13.6806 5.05694 16.5403C5.32053 12.804 5.39375 11.0604 5.41815 10.2221C5.41815 10.1024 5.42304 10.0161 5.42304 9.94907C5.43768 9.37905 5.44256 8.06177 5.29612 6.44271C5.16921 5.08231 5.01301 4.33027 4.73966 3.58301C4.4175 2.69684 3.85616 1.16879 3.01171 1.12568V1.12089Z" fill="#F47D20"/>
<path d="M22.7953 1.53284C21.1796 1.86815 20.6671 3.87042 20.5695 4.24884C20.2668 5.44158 20.2278 7.72646 21.8923 8.61742C23.0784 9.25451 24.6209 8.90483 25.563 8.08572C27.0029 6.83071 26.8711 4.6081 25.9828 3.24291C25.4458 2.41422 24.2011 1.24064 22.7953 1.52805V1.53284Z" fill="#5ABA47"/>
<path d="M20.506 12.7513C21.1748 11.2089 22.9759 10.6915 23.2151 10.6245C23.3469 10.5862 25.4458 10.0449 26.9151 11.2089C28.1354 12.1765 28.3062 14.0015 28.6479 17.6516C28.6821 18.006 28.726 18.4707 28.7504 19.1269C28.8432 21.2873 28.8334 26.6426 27.6082 26.863C27.452 26.8917 27.1006 26.8725 25.0212 23.6728C23.7032 21.6465 22.8539 20.3293 21.8923 18.2408C20.5988 15.4385 19.9642 14.0111 20.506 12.7465V12.7513Z" fill="#F47D20"/>
<path d="M36.453 2.47649C36.0527 2.40464 34.5395 2.17471 33.124 2.99382C31.3667 4.00454 30.8884 5.9637 30.615 7.08458C30.3173 8.30127 30.4979 10.3802 30.8298 14.538C31.1666 18.7677 30.9469 17.642 31.3374 22.6141C31.8012 28.5395 32.0403 31.5046 32.4797 31.5333C33.207 31.5765 34.3101 25.6702 35.1887 20.9615C36.1113 16.0181 36.3553 13.5656 37.0534 13.5225C37.8685 13.4746 38.0589 16.775 40.5434 21.316C41.9932 23.965 44.2385 28.0749 47.5236 28.1659C49.4419 28.2186 50.8233 26.8821 50.8916 26.8055C52.7904 24.9038 52.1998 21.8046 51.0722 15.8792C50.9795 15.3906 50.8623 14.8206 50.628 13.6806C48.5438 3.70755 47.6066 2.82617 46.9281 2.76869C46.601 2.73995 46.3521 2.9076 46.2886 2.94592C45.5955 3.40098 45.7908 4.54103 45.8981 7.72646C45.9274 8.5312 45.9665 9.29762 46.0251 10.0353C46.1568 11.7789 46.3326 13.0722 46.5034 14.2841C46.8158 16.5546 47.0794 18.4659 47.3479 20.3676C46.8109 18.9162 46.0202 16.8229 45.0146 14.3033C43.316 10.0401 42.6961 8.69885 41.7491 7.31451C40.1822 5.01525 38.8497 2.91239 36.453 2.4717V2.47649Z" fill="#F47D20"/>
<path d="M52.6538 10.4233C53.6349 9.13475 55.4653 9.00542 55.7973 8.98626C56.0316 8.97189 57.7497 8.89524 58.892 9.89159C60.6736 11.4484 59.9658 14.6865 59.1214 18.5378C58.8236 19.8981 57.5154 25.8666 56.1438 25.79C55.9876 25.7804 55.6459 25.6798 54.4012 22.092C53.6105 19.8167 53.1028 18.3366 52.6733 16.0852C52.0924 13.0626 51.8191 11.525 52.6538 10.4281V10.4233Z" fill="#F47D20"/>
<path d="M30.4393 32.6494C34.0856 34.5846 37.5952 34.7331 38.8545 34.7762C40.5239 34.8289 43.5845 34.8289 46.9183 33.3632C49.3297 32.3045 51.3895 30.4939 52.0338 29.9478C53.6691 28.5682 54.5867 27.4617 54.7429 27.5815C54.9479 27.7396 53.6935 29.9239 52.1461 31.7297C51.1601 32.8841 48.7097 35.7391 44.4826 37.1809C44.0921 37.315 36.9069 39.643 30.7322 35.7678C27.1201 33.4973 24.2792 29.1095 24.6697 28.7024C24.6941 28.6784 24.7234 28.6688 24.7234 28.6688C24.7234 28.6688 27.74 31.2076 30.4442 32.6446L30.4393 32.6494Z" fill="#5ABA47"/>
<path d="M55.3336 0.0431105C53.7179 0.378419 53.2053 2.38069 53.1077 2.75911C52.8051 3.95185 52.766 6.23673 54.4305 7.12769C55.6167 7.76478 57.1591 7.4151 58.1012 6.59599C59.5412 5.34098 59.4094 3.11837 58.521 1.75318C57.9841 0.924492 56.7394 -0.249087 55.3336 0.0383204V0.0431105Z" fill="#5ABA47"/>
</g>
<defs>
<clipPath id="clip0_70_87">
<rect width="60" height="38" fill="white"/>
</clipPath>
</defs>
</svg>
