<svg width="214" height="214" viewBox="0 0 214 214" fill="none" xmlns="http://www.w3.org/2000/svg">
<g opacity="0.7">
<path d="M212.983 108.017C213.545 49.4848 166.55 1.57927 108.017 1.01738C49.4848 0.455487 1.57928 47.45 1.01739 105.983C0.455502 164.515 47.45 212.421 105.983 212.983C164.515 213.544 212.421 166.55 212.983 108.017Z" fill="#F47D20"/>
<path d="M39.1256 65.0935C41.115 65.1512 41.3745 67.5155 47.4581 72.6476C48.8132 73.8009 54.0319 78.1257 60.2308 80.836C71.4754 85.7663 80.4134 82.9119 81.2207 86.0258C81.6244 87.5251 79.6061 88.4189 75.4254 94.416C72.2827 98.885 70.7546 101.134 71.1582 102.345C72.6287 106.526 92.696 105.286 112.273 98.9426C135.887 91.3021 151.86 80.7783 151.86 80.7783C161.317 74.5505 169.015 67.8038 176.598 70.3987C178.068 70.9177 181.009 72.2728 184.325 77.6644C196.636 97.5299 188.217 129.764 181.153 130.312C178.876 130.485 178.703 127.169 174.262 123.306C163.364 113.791 144.248 116.04 131.821 121.662C127.871 123.45 110.139 131.437 110.976 142.508C111.696 152.138 126.113 158.193 135.195 159.721C153.215 162.749 167.227 150.927 169.736 148.736C173.225 145.449 177.319 142.018 178.53 142.912C180.461 144.325 175.127 156.55 167.775 165.632C154.628 181.835 136.031 186.737 129.976 188.034C126.199 188.842 107.227 192.648 87.2755 183.825C81.2784 181.172 72.744 177.395 67.3524 168.63C62.7392 161.134 62.4509 153.32 61.5571 153.465C60.6056 153.609 59.2505 163.181 61.8166 172.84C62.2202 174.426 62.7104 175.81 62.1049 176.3C60.202 177.857 50.0818 168.803 45.9877 164.68C27.3908 146.026 24.0751 120.855 23.8445 118.895C20.6729 91.8211 32.2635 64.9205 39.0679 65.1512L39.1256 65.0935Z" fill="white"/>
<path d="M157.886 42.4025C143.989 32.1959 111.812 20.1728 88.1117 32.7726C85.6033 34.0988 83.758 35.3963 82.8354 36.1459C79.4332 33.897 75.0795 33.4934 71.7926 35.1656C68.9094 36.5784 67.8138 39.0868 67.5254 39.8653C66.1703 39.8653 57.7225 39.8941 51.8407 45.8624C48.8709 48.8321 46.9104 53.0128 47.1122 56.242C47.8042 67.948 77.2419 79.9134 104.604 80.1728C133.782 80.4323 166.824 67.4001 166.968 54.4256C167.026 50.0719 163.681 46.6697 157.915 42.4314L157.886 42.4025ZM128.679 55.0888C131.187 57.107 130.956 62.0662 128.909 63.133C127.525 63.8538 125.363 62.8158 124.21 61.4319C122.509 59.3559 122.509 55.6654 124.412 54.4833C125.68 53.7048 127.554 54.1661 128.679 55.0888ZM144.479 56.5592C143.412 57.8855 139.03 56.7899 136.521 54.1661C134.907 52.465 133.523 49.553 134.445 48.4285C135.541 47.131 139.635 48.2555 142.086 50.6486C143.873 52.3785 145.401 55.4059 144.479 56.5592Z" fill="white"/>
</g>
</svg>
